<?xml version="1.0" encoding="utf-8" standalone="no"?>
<!DOCTYPE svg PUBLIC "-//W3C//DTD SVG 1.1//EN"
  "http://www.w3.org/Graphics/SVG/1.1/DTD/svg11.dtd">
<svg xmlns:xlink="http://www.w3.org/1999/xlink" width="597.845313pt" height="195.610625pt" viewBox="0 0 597.845313 195.610625" xmlns="http://www.w3.org/2000/svg" version="1.1">
 <metadata>
  <rdf:RDF xmlns:dc="http://purl.org/dc/elements/1.1/" xmlns:cc="http://creativecommons.org/ns#" xmlns:rdf="http://www.w3.org/1999/02/22-rdf-syntax-ns#">
   <cc:Work>
    <dc:type rdf:resource="http://purl.org/dc/dcmitype/StillImage"/>
    <dc:date>2024-06-19T20:32:49.856198</dc:date>
    <dc:format>image/svg+xml</dc:format>
    <dc:creator>
     <cc:Agent>
      <dc:title>Matplotlib v3.8.3, https://matplotlib.org/</dc:title>
     </cc:Agent>
    </dc:creator>
   </cc:Work>
  </rdf:RDF>
 </metadata>
 <defs>
  <style type="text/css">*{stroke-linejoin: round; stroke-linecap: butt}</style>
 </defs>
 <g id="figure_1">
  <g id="patch_1">
   <path d="M 0 195.610625 
L 597.845313 195.610625 
L 597.845313 0 
L 0 0 
z
" style="fill: #ffffff"/>
  </g>
  <g id="axes_1">
   <g id="patch_2">
    <path d="M 39.845313 166.32 
L 597.845312 166.32 
L 597.845312 0 
L 39.845313 0 
z
" style="fill: #ffffff"/>
   </g>
   <g id="patch_3">
    <path d="M 68.389342 166.32 
L 71.569735 166.32 
L 71.569735 166.32 
L 68.389342 166.32 
z
" clip-path="url(#p8c13015df4)" style="fill: #1f77b4; stroke: #ffffff; stroke-linejoin: miter"/>
   </g>
   <g id="patch_4">
    <path d="M 76.340325 166.32 
L 79.520719 166.32 
L 79.520719 122.249032 
L 76.340325 122.249032 
z
" clip-path="url(#p8c13015df4)" style="fill: #1f77b4; stroke: #ffffff; stroke-linejoin: miter"/>
   </g>
   <g id="patch_5">
    <path d="M 84.291309 166.32 
L 87.471702 166.32 
L 87.471702 158.655484 
L 84.291309 158.655484 
z
" clip-path="url(#p8c13015df4)" style="fill: #1f77b4; stroke: #ffffff; stroke-linejoin: miter"/>
   </g>
   <g id="patch_6">
    <path d="M 92.242292 166.32 
L 95.422685 166.32 
L 95.422685 163.765161 
L 92.242292 163.765161 
z
" clip-path="url(#p8c13015df4)" style="fill: #1f77b4; stroke: #ffffff; stroke-linejoin: miter"/>
   </g>
   <g id="patch_7">
    <path d="M 100.193275 166.32 
L 103.373668 166.32 
L 103.373668 166.32 
L 100.193275 166.32 
z
" clip-path="url(#p8c13015df4)" style="fill: #1f77b4; stroke: #ffffff; stroke-linejoin: miter"/>
   </g>
   <g id="patch_8">
    <path d="M 108.144258 166.32 
L 111.324651 166.32 
L 111.324651 165.68129 
L 108.144258 165.68129 
z
" clip-path="url(#p8c13015df4)" style="fill: #1f77b4; stroke: #ffffff; stroke-linejoin: miter"/>
   </g>
   <g id="patch_9">
    <path d="M 116.095241 166.32 
L 119.275635 166.32 
L 119.275635 160.571613 
L 116.095241 160.571613 
z
" clip-path="url(#p8c13015df4)" style="fill: #1f77b4; stroke: #ffffff; stroke-linejoin: miter"/>
   </g>
   <g id="patch_10">
    <path d="M 124.046224 166.32 
L 127.226618 166.32 
L 127.226618 166.32 
L 124.046224 166.32 
z
" clip-path="url(#p8c13015df4)" style="fill: #1f77b4; stroke: #ffffff; stroke-linejoin: miter"/>
   </g>
   <g id="patch_11">
    <path d="M 131.997208 166.32 
L 135.177601 166.32 
L 135.177601 95.423226 
L 131.997208 95.423226 
z
" clip-path="url(#p8c13015df4)" style="fill: #1f77b4; stroke: #ffffff; stroke-linejoin: miter"/>
   </g>
   <g id="patch_12">
    <path d="M 139.948191 166.32 
L 143.128584 166.32 
L 143.128584 136.300645 
L 139.948191 136.300645 
z
" clip-path="url(#p8c13015df4)" style="fill: #1f77b4; stroke: #ffffff; stroke-linejoin: miter"/>
   </g>
   <g id="patch_13">
    <path d="M 147.899174 166.32 
L 151.079567 166.32 
L 151.079567 116.500645 
L 147.899174 116.500645 
z
" clip-path="url(#p8c13015df4)" style="fill: #1f77b4; stroke: #ffffff; stroke-linejoin: miter"/>
   </g>
   <g id="patch_14">
    <path d="M 155.850157 166.32 
L 159.03055 166.32 
L 159.03055 155.461935 
L 155.850157 155.461935 
z
" clip-path="url(#p8c13015df4)" style="fill: #1f77b4; stroke: #ffffff; stroke-linejoin: miter"/>
   </g>
   <g id="patch_15">
    <path d="M 163.80114 166.32 
L 166.981534 166.32 
L 166.981534 162.487742 
L 163.80114 162.487742 
z
" clip-path="url(#p8c13015df4)" style="fill: #1f77b4; stroke: #ffffff; stroke-linejoin: miter"/>
   </g>
   <g id="patch_16">
    <path d="M 171.752124 166.32 
L 174.932517 166.32 
L 174.932517 162.487742 
L 171.752124 162.487742 
z
" clip-path="url(#p8c13015df4)" style="fill: #1f77b4; stroke: #ffffff; stroke-linejoin: miter"/>
   </g>
   <g id="patch_17">
    <path d="M 179.703107 166.32 
L 182.8835 166.32 
L 182.8835 163.126452 
L 179.703107 163.126452 
z
" clip-path="url(#p8c13015df4)" style="fill: #1f77b4; stroke: #ffffff; stroke-linejoin: miter"/>
   </g>
   <g id="patch_18">
    <path d="M 187.65409 166.32 
L 190.834483 166.32 
L 190.834483 163.765161 
L 187.65409 163.765161 
z
" clip-path="url(#p8c13015df4)" style="fill: #1f77b4; stroke: #ffffff; stroke-linejoin: miter"/>
   </g>
   <g id="patch_19">
    <path d="M 195.605073 166.32 
L 198.785466 166.32 
L 198.785466 134.384516 
L 195.605073 134.384516 
z
" clip-path="url(#p8c13015df4)" style="fill: #1f77b4; stroke: #ffffff; stroke-linejoin: miter"/>
   </g>
   <g id="patch_20">
    <path d="M 203.556056 166.32 
L 206.73645 166.32 
L 206.73645 135.661935 
L 203.556056 135.661935 
z
" clip-path="url(#p8c13015df4)" style="fill: #1f77b4; stroke: #ffffff; stroke-linejoin: miter"/>
   </g>
   <g id="patch_21">
    <path d="M 211.507039 166.32 
L 214.687433 166.32 
L 214.687433 158.016774 
L 211.507039 158.016774 
z
" clip-path="url(#p8c13015df4)" style="fill: #1f77b4; stroke: #ffffff; stroke-linejoin: miter"/>
   </g>
   <g id="patch_22">
    <path d="M 219.458023 166.32 
L 222.638416 166.32 
L 222.638416 163.126452 
L 219.458023 163.126452 
z
" clip-path="url(#p8c13015df4)" style="fill: #1f77b4; stroke: #ffffff; stroke-linejoin: miter"/>
   </g>
   <g id="patch_23">
    <path d="M 227.409006 166.32 
L 230.589399 166.32 
L 230.589399 160.571613 
L 227.409006 160.571613 
z
" clip-path="url(#p8c13015df4)" style="fill: #1f77b4; stroke: #ffffff; stroke-linejoin: miter"/>
   </g>
   <g id="patch_24">
    <path d="M 235.359989 166.32 
L 238.540382 166.32 
L 238.540382 165.042581 
L 235.359989 165.042581 
z
" clip-path="url(#p8c13015df4)" style="fill: #1f77b4; stroke: #ffffff; stroke-linejoin: miter"/>
   </g>
   <g id="patch_25">
    <path d="M 243.310972 166.32 
L 246.491366 166.32 
L 246.491366 162.487742 
L 243.310972 162.487742 
z
" clip-path="url(#p8c13015df4)" style="fill: #1f77b4; stroke: #ffffff; stroke-linejoin: miter"/>
   </g>
   <g id="patch_26">
    <path d="M 251.261955 166.32 
L 254.442349 166.32 
L 254.442349 162.487742 
L 251.261955 162.487742 
z
" clip-path="url(#p8c13015df4)" style="fill: #1f77b4; stroke: #ffffff; stroke-linejoin: miter"/>
   </g>
   <g id="patch_27">
    <path d="M 259.212939 166.32 
L 262.393332 166.32 
L 262.393332 112.029677 
L 259.212939 112.029677 
z
" clip-path="url(#p8c13015df4)" style="fill: #1f77b4; stroke: #ffffff; stroke-linejoin: miter"/>
   </g>
   <g id="patch_28">
    <path d="M 267.163922 166.32 
L 270.344315 166.32 
L 270.344315 130.552258 
L 267.163922 130.552258 
z
" clip-path="url(#p8c13015df4)" style="fill: #1f77b4; stroke: #ffffff; stroke-linejoin: miter"/>
   </g>
   <g id="patch_29">
    <path d="M 275.114905 166.32 
L 278.295298 166.32 
L 278.295298 147.797419 
L 275.114905 147.797419 
z
" clip-path="url(#p8c13015df4)" style="fill: #1f77b4; stroke: #ffffff; stroke-linejoin: miter"/>
   </g>
   <g id="patch_30">
    <path d="M 283.065888 166.32 
L 286.246281 166.32 
L 286.246281 165.042581 
L 283.065888 165.042581 
z
" clip-path="url(#p8c13015df4)" style="fill: #1f77b4; stroke: #ffffff; stroke-linejoin: miter"/>
   </g>
   <g id="patch_31">
    <path d="M 291.016871 166.32 
L 294.197265 166.32 
L 294.197265 159.294194 
L 291.016871 159.294194 
z
" clip-path="url(#p8c13015df4)" style="fill: #1f77b4; stroke: #ffffff; stroke-linejoin: miter"/>
   </g>
   <g id="patch_32">
    <path d="M 298.967855 166.32 
L 302.148248 166.32 
L 302.148248 161.849032 
L 298.967855 161.849032 
z
" clip-path="url(#p8c13015df4)" style="fill: #1f77b4; stroke: #ffffff; stroke-linejoin: miter"/>
   </g>
   <g id="patch_33">
    <path d="M 306.918838 166.32 
L 310.099231 166.32 
L 310.099231 161.210323 
L 306.918838 161.210323 
z
" clip-path="url(#p8c13015df4)" style="fill: #1f77b4; stroke: #ffffff; stroke-linejoin: miter"/>
   </g>
   <g id="patch_34">
    <path d="M 314.869821 166.32 
L 318.050214 166.32 
L 318.050214 163.765161 
L 314.869821 163.765161 
z
" clip-path="url(#p8c13015df4)" style="fill: #1f77b4; stroke: #ffffff; stroke-linejoin: miter"/>
   </g>
   <g id="patch_35">
    <path d="M 322.820804 166.32 
L 326.001197 166.32 
L 326.001197 132.468387 
L 322.820804 132.468387 
z
" clip-path="url(#p8c13015df4)" style="fill: #1f77b4; stroke: #ffffff; stroke-linejoin: miter"/>
   </g>
   <g id="patch_36">
    <path d="M 330.771787 166.32 
L 333.952181 166.32 
L 333.952181 93.507097 
L 330.771787 93.507097 
z
" clip-path="url(#p8c13015df4)" style="fill: #1f77b4; stroke: #ffffff; stroke-linejoin: miter"/>
   </g>
   <g id="patch_37">
    <path d="M 338.72277 166.32 
L 341.903164 166.32 
L 341.903164 157.378065 
L 338.72277 157.378065 
z
" clip-path="url(#p8c13015df4)" style="fill: #1f77b4; stroke: #ffffff; stroke-linejoin: miter"/>
   </g>
   <g id="patch_38">
    <path d="M 346.673754 166.32 
L 349.854147 166.32 
L 349.854147 162.487742 
L 346.673754 162.487742 
z
" clip-path="url(#p8c13015df4)" style="fill: #1f77b4; stroke: #ffffff; stroke-linejoin: miter"/>
   </g>
   <g id="patch_39">
    <path d="M 354.624737 166.32 
L 357.80513 166.32 
L 357.80513 163.765161 
L 354.624737 163.765161 
z
" clip-path="url(#p8c13015df4)" style="fill: #1f77b4; stroke: #ffffff; stroke-linejoin: miter"/>
   </g>
   <g id="patch_40">
    <path d="M 362.57572 166.32 
L 365.756113 166.32 
L 365.756113 162.487742 
L 362.57572 162.487742 
z
" clip-path="url(#p8c13015df4)" style="fill: #1f77b4; stroke: #ffffff; stroke-linejoin: miter"/>
   </g>
   <g id="patch_41">
    <path d="M 370.526703 166.32 
L 373.707096 166.32 
L 373.707096 152.268387 
L 370.526703 152.268387 
z
" clip-path="url(#p8c13015df4)" style="fill: #1f77b4; stroke: #ffffff; stroke-linejoin: miter"/>
   </g>
   <g id="patch_42">
    <path d="M 378.477686 166.32 
L 381.65808 166.32 
L 381.65808 163.765161 
L 378.477686 163.765161 
z
" clip-path="url(#p8c13015df4)" style="fill: #1f77b4; stroke: #ffffff; stroke-linejoin: miter"/>
   </g>
   <g id="patch_43">
    <path d="M 386.42867 166.32 
L 389.609063 166.32 
L 389.609063 139.494194 
L 386.42867 139.494194 
z
" clip-path="url(#p8c13015df4)" style="fill: #1f77b4; stroke: #ffffff; stroke-linejoin: miter"/>
   </g>
   <g id="patch_44">
    <path d="M 394.379653 166.32 
L 397.560046 166.32 
L 397.560046 136.939355 
L 394.379653 136.939355 
z
" clip-path="url(#p8c13015df4)" style="fill: #1f77b4; stroke: #ffffff; stroke-linejoin: miter"/>
   </g>
   <g id="patch_45">
    <path d="M 402.330636 166.32 
L 405.511029 166.32 
L 405.511029 164.403871 
L 402.330636 164.403871 
z
" clip-path="url(#p8c13015df4)" style="fill: #1f77b4; stroke: #ffffff; stroke-linejoin: miter"/>
   </g>
   <g id="patch_46">
    <path d="M 410.281619 166.32 
L 413.462012 166.32 
L 413.462012 162.487742 
L 410.281619 162.487742 
z
" clip-path="url(#p8c13015df4)" style="fill: #1f77b4; stroke: #ffffff; stroke-linejoin: miter"/>
   </g>
   <g id="patch_47">
    <path d="M 418.232602 166.32 
L 421.412996 166.32 
L 421.412996 163.126452 
L 418.232602 163.126452 
z
" clip-path="url(#p8c13015df4)" style="fill: #1f77b4; stroke: #ffffff; stroke-linejoin: miter"/>
   </g>
   <g id="patch_48">
    <path d="M 426.183586 166.32 
L 429.363979 166.32 
L 429.363979 163.126452 
L 426.183586 163.126452 
z
" clip-path="url(#p8c13015df4)" style="fill: #1f77b4; stroke: #ffffff; stroke-linejoin: miter"/>
   </g>
   <g id="patch_49">
    <path d="M 434.134569 166.32 
L 437.314962 166.32 
L 437.314962 161.849032 
L 434.134569 161.849032 
z
" clip-path="url(#p8c13015df4)" style="fill: #1f77b4; stroke: #ffffff; stroke-linejoin: miter"/>
   </g>
   <g id="patch_50">
    <path d="M 442.085552 166.32 
L 445.265945 166.32 
L 445.265945 163.765161 
L 442.085552 163.765161 
z
" clip-path="url(#p8c13015df4)" style="fill: #1f77b4; stroke: #ffffff; stroke-linejoin: miter"/>
   </g>
   <g id="patch_51">
    <path d="M 450.036535 166.32 
L 453.216928 166.32 
L 453.216928 101.171613 
L 450.036535 101.171613 
z
" clip-path="url(#p8c13015df4)" style="fill: #1f77b4; stroke: #ffffff; stroke-linejoin: miter"/>
   </g>
   <g id="patch_52">
    <path d="M 457.987518 166.32 
L 461.167912 166.32 
L 461.167912 7.92 
L 457.987518 7.92 
z
" clip-path="url(#p8c13015df4)" style="fill: #1f77b4; stroke: #ffffff; stroke-linejoin: miter"/>
   </g>
   <g id="patch_53">
    <path d="M 465.938501 166.32 
L 469.118895 166.32 
L 469.118895 132.468387 
L 465.938501 132.468387 
z
" clip-path="url(#p8c13015df4)" style="fill: #1f77b4; stroke: #ffffff; stroke-linejoin: miter"/>
   </g>
   <g id="patch_54">
    <path d="M 473.889485 166.32 
L 477.069878 166.32 
L 477.069878 164.403871 
L 473.889485 164.403871 
z
" clip-path="url(#p8c13015df4)" style="fill: #1f77b4; stroke: #ffffff; stroke-linejoin: miter"/>
   </g>
   <g id="patch_55">
    <path d="M 481.840468 166.32 
L 485.020861 166.32 
L 485.020861 163.765161 
L 481.840468 163.765161 
z
" clip-path="url(#p8c13015df4)" style="fill: #1f77b4; stroke: #ffffff; stroke-linejoin: miter"/>
   </g>
   <g id="patch_56">
    <path d="M 489.791451 166.32 
L 492.971844 166.32 
L 492.971844 161.849032 
L 489.791451 161.849032 
z
" clip-path="url(#p8c13015df4)" style="fill: #1f77b4; stroke: #ffffff; stroke-linejoin: miter"/>
   </g>
   <g id="patch_57">
    <path d="M 497.742434 166.32 
L 500.922827 166.32 
L 500.922827 163.126452 
L 497.742434 163.126452 
z
" clip-path="url(#p8c13015df4)" style="fill: #1f77b4; stroke: #ffffff; stroke-linejoin: miter"/>
   </g>
   <g id="patch_58">
    <path d="M 505.693417 166.32 
L 508.873811 166.32 
L 508.873811 165.042581 
L 505.693417 165.042581 
z
" clip-path="url(#p8c13015df4)" style="fill: #1f77b4; stroke: #ffffff; stroke-linejoin: miter"/>
   </g>
   <g id="patch_59">
    <path d="M 513.644401 166.32 
L 516.824794 166.32 
L 516.824794 166.32 
L 513.644401 166.32 
z
" clip-path="url(#p8c13015df4)" style="fill: #1f77b4; stroke: #ffffff; stroke-linejoin: miter"/>
   </g>
   <g id="patch_60">
    <path d="M 521.595384 166.32 
L 524.775777 166.32 
L 524.775777 140.132903 
L 521.595384 140.132903 
z
" clip-path="url(#p8c13015df4)" style="fill: #1f77b4; stroke: #ffffff; stroke-linejoin: miter"/>
   </g>
   <g id="patch_61">
    <path d="M 529.546367 166.32 
L 532.72676 166.32 
L 532.72676 142.687742 
L 529.546367 142.687742 
z
" clip-path="url(#p8c13015df4)" style="fill: #1f77b4; stroke: #ffffff; stroke-linejoin: miter"/>
   </g>
   <g id="patch_62">
    <path d="M 537.49735 166.32 
L 540.677743 166.32 
L 540.677743 160.571613 
L 537.49735 160.571613 
z
" clip-path="url(#p8c13015df4)" style="fill: #1f77b4; stroke: #ffffff; stroke-linejoin: miter"/>
   </g>
   <g id="patch_63">
    <path d="M 545.448333 166.32 
L 548.628727 166.32 
L 548.628727 163.126452 
L 545.448333 163.126452 
z
" clip-path="url(#p8c13015df4)" style="fill: #1f77b4; stroke: #ffffff; stroke-linejoin: miter"/>
   </g>
   <g id="patch_64">
    <path d="M 553.399316 166.32 
L 556.57971 166.32 
L 556.57971 157.378065 
L 553.399316 157.378065 
z
" clip-path="url(#p8c13015df4)" style="fill: #1f77b4; stroke: #ffffff; stroke-linejoin: miter"/>
   </g>
   <g id="patch_65">
    <path d="M 561.3503 166.32 
L 564.530693 166.32 
L 564.530693 131.190968 
L 561.3503 131.190968 
z
" clip-path="url(#p8c13015df4)" style="fill: #1f77b4; stroke: #ffffff; stroke-linejoin: miter"/>
   </g>
   <g id="patch_66">
    <path d="M 569.301283 166.32 
L 572.481676 166.32 
L 572.481676 166.32 
L 569.301283 166.32 
z
" clip-path="url(#p8c13015df4)" style="fill: #1f77b4; stroke: #ffffff; stroke-linejoin: miter"/>
   </g>
   <g id="patch_67">
    <path d="M 65.208949 166.32 
L 68.389342 166.32 
L 68.389342 166.32 
L 65.208949 166.32 
z
" clip-path="url(#p8c13015df4)" style="fill: #ff7f0e; stroke: #ffffff; stroke-linejoin: miter"/>
   </g>
   <g id="patch_68">
    <path d="M 73.159932 166.32 
L 76.340325 166.32 
L 76.340325 103.355421 
L 73.159932 103.355421 
z
" clip-path="url(#p8c13015df4)" style="fill: #ff7f0e; stroke: #ffffff; stroke-linejoin: miter"/>
   </g>
   <g id="patch_69">
    <path d="M 81.110915 166.32 
L 84.291309 166.32 
L 84.291309 150.755722 
L 81.110915 150.755722 
z
" clip-path="url(#p8c13015df4)" style="fill: #ff7f0e; stroke: #ffffff; stroke-linejoin: miter"/>
   </g>
   <g id="patch_70">
    <path d="M 89.061898 166.32 
L 92.242292 166.32 
L 92.242292 164.197598 
L 89.061898 164.197598 
z
" clip-path="url(#p8c13015df4)" style="fill: #ff7f0e; stroke: #ffffff; stroke-linejoin: miter"/>
   </g>
   <g id="patch_71">
    <path d="M 97.012882 166.32 
L 100.193275 166.32 
L 100.193275 166.32 
L 97.012882 166.32 
z
" clip-path="url(#p8c13015df4)" style="fill: #ff7f0e; stroke: #ffffff; stroke-linejoin: miter"/>
   </g>
   <g id="patch_72">
    <path d="M 104.963865 166.32 
L 108.144258 166.32 
L 108.144258 166.32 
L 104.963865 166.32 
z
" clip-path="url(#p8c13015df4)" style="fill: #ff7f0e; stroke: #ffffff; stroke-linejoin: miter"/>
   </g>
   <g id="patch_73">
    <path d="M 112.914848 166.32 
L 116.095241 166.32 
L 116.095241 164.197598 
L 112.914848 164.197598 
z
" clip-path="url(#p8c13015df4)" style="fill: #ff7f0e; stroke: #ffffff; stroke-linejoin: miter"/>
   </g>
   <g id="patch_74">
    <path d="M 120.865831 166.32 
L 124.046224 166.32 
L 124.046224 166.32 
L 120.865831 166.32 
z
" clip-path="url(#p8c13015df4)" style="fill: #ff7f0e; stroke: #ffffff; stroke-linejoin: miter"/>
   </g>
   <g id="patch_75">
    <path d="M 128.816814 166.32 
L 131.997208 166.32 
L 131.997208 59.492455 
L 128.816814 59.492455 
z
" clip-path="url(#p8c13015df4)" style="fill: #ff7f0e; stroke: #ffffff; stroke-linejoin: miter"/>
   </g>
   <g id="patch_76">
    <path d="M 136.767798 166.32 
L 139.948191 166.32 
L 139.948191 146.510919 
L 136.767798 146.510919 
z
" clip-path="url(#p8c13015df4)" style="fill: #ff7f0e; stroke: #ffffff; stroke-linejoin: miter"/>
   </g>
   <g id="patch_77">
    <path d="M 144.718781 166.32 
L 147.899174 166.32 
L 147.899174 133.069042 
L 144.718781 133.069042 
z
" clip-path="url(#p8c13015df4)" style="fill: #ff7f0e; stroke: #ffffff; stroke-linejoin: miter"/>
   </g>
   <g id="patch_78">
    <path d="M 152.669764 166.32 
L 155.850157 166.32 
L 155.850157 156.415459 
L 152.669764 156.415459 
z
" clip-path="url(#p8c13015df4)" style="fill: #ff7f0e; stroke: #ffffff; stroke-linejoin: miter"/>
   </g>
   <g id="patch_79">
    <path d="M 160.620747 166.32 
L 163.80114 166.32 
L 163.80114 166.32 
L 160.620747 166.32 
z
" clip-path="url(#p8c13015df4)" style="fill: #ff7f0e; stroke: #ffffff; stroke-linejoin: miter"/>
   </g>
   <g id="patch_80">
    <path d="M 168.57173 166.32 
L 171.752124 166.32 
L 171.752124 162.782664 
L 168.57173 162.782664 
z
" clip-path="url(#p8c13015df4)" style="fill: #ff7f0e; stroke: #ffffff; stroke-linejoin: miter"/>
   </g>
   <g id="patch_81">
    <path d="M 176.522713 166.32 
L 179.703107 166.32 
L 179.703107 159.245328 
L 176.522713 159.245328 
z
" clip-path="url(#p8c13015df4)" style="fill: #ff7f0e; stroke: #ffffff; stroke-linejoin: miter"/>
   </g>
   <g id="patch_82">
    <path d="M 184.473697 166.32 
L 187.65409 166.32 
L 187.65409 166.32 
L 184.473697 166.32 
z
" clip-path="url(#p8c13015df4)" style="fill: #ff7f0e; stroke: #ffffff; stroke-linejoin: miter"/>
   </g>
   <g id="patch_83">
    <path d="M 192.42468 166.32 
L 195.605073 166.32 
L 195.605073 146.510919 
L 192.42468 146.510919 
z
" clip-path="url(#p8c13015df4)" style="fill: #ff7f0e; stroke: #ffffff; stroke-linejoin: miter"/>
   </g>
   <g id="patch_84">
    <path d="M 200.375663 166.32 
L 203.556056 166.32 
L 203.556056 150.048255 
L 200.375663 150.048255 
z
" clip-path="url(#p8c13015df4)" style="fill: #ff7f0e; stroke: #ffffff; stroke-linejoin: miter"/>
   </g>
   <g id="patch_85">
    <path d="M 208.326646 166.32 
L 211.507039 166.32 
L 211.507039 157.830394 
L 208.326646 157.830394 
z
" clip-path="url(#p8c13015df4)" style="fill: #ff7f0e; stroke: #ffffff; stroke-linejoin: miter"/>
   </g>
   <g id="patch_86">
    <path d="M 216.277629 166.32 
L 219.458023 166.32 
L 219.458023 166.32 
L 216.277629 166.32 
z
" clip-path="url(#p8c13015df4)" style="fill: #ff7f0e; stroke: #ffffff; stroke-linejoin: miter"/>
   </g>
   <g id="patch_87">
    <path d="M 224.228613 166.32 
L 227.409006 166.32 
L 227.409006 149.340788 
L 224.228613 149.340788 
z
" clip-path="url(#p8c13015df4)" style="fill: #ff7f0e; stroke: #ffffff; stroke-linejoin: miter"/>
   </g>
   <g id="patch_88">
    <path d="M 232.179596 166.32 
L 235.359989 166.32 
L 235.359989 166.32 
L 232.179596 166.32 
z
" clip-path="url(#p8c13015df4)" style="fill: #ff7f0e; stroke: #ffffff; stroke-linejoin: miter"/>
   </g>
   <g id="patch_89">
    <path d="M 240.130579 166.32 
L 243.310972 166.32 
L 243.310972 163.490131 
L 240.130579 163.490131 
z
" clip-path="url(#p8c13015df4)" style="fill: #ff7f0e; stroke: #ffffff; stroke-linejoin: miter"/>
   </g>
   <g id="patch_90">
    <path d="M 248.081562 166.32 
L 251.261955 166.32 
L 251.261955 159.952795 
L 248.081562 159.952795 
z
" clip-path="url(#p8c13015df4)" style="fill: #ff7f0e; stroke: #ffffff; stroke-linejoin: miter"/>
   </g>
   <g id="patch_91">
    <path d="M 256.032545 166.32 
L 259.212939 166.32 
L 259.212939 107.600224 
L 256.032545 107.600224 
z
" clip-path="url(#p8c13015df4)" style="fill: #ff7f0e; stroke: #ffffff; stroke-linejoin: miter"/>
   </g>
   <g id="patch_92">
    <path d="M 263.983529 166.32 
L 267.163922 166.32 
L 267.163922 118.919699 
L 263.983529 118.919699 
z
" clip-path="url(#p8c13015df4)" style="fill: #ff7f0e; stroke: #ffffff; stroke-linejoin: miter"/>
   </g>
   <g id="patch_93">
    <path d="M 271.934512 166.32 
L 275.114905 166.32 
L 275.114905 162.075197 
L 271.934512 162.075197 
z
" clip-path="url(#p8c13015df4)" style="fill: #ff7f0e; stroke: #ffffff; stroke-linejoin: miter"/>
   </g>
   <g id="patch_94">
    <path d="M 279.885495 166.32 
L 283.065888 166.32 
L 283.065888 163.490131 
L 279.885495 163.490131 
z
" clip-path="url(#p8c13015df4)" style="fill: #ff7f0e; stroke: #ffffff; stroke-linejoin: miter"/>
   </g>
   <g id="patch_95">
    <path d="M 287.836478 166.32 
L 291.016871 166.32 
L 291.016871 159.952795 
L 287.836478 159.952795 
z
" clip-path="url(#p8c13015df4)" style="fill: #ff7f0e; stroke: #ffffff; stroke-linejoin: miter"/>
   </g>
   <g id="patch_96">
    <path d="M 295.787461 166.32 
L 298.967855 166.32 
L 298.967855 166.32 
L 295.787461 166.32 
z
" clip-path="url(#p8c13015df4)" style="fill: #ff7f0e; stroke: #ffffff; stroke-linejoin: miter"/>
   </g>
   <g id="patch_97">
    <path d="M 303.738444 166.32 
L 306.918838 166.32 
L 306.918838 155.000525 
L 303.738444 155.000525 
z
" clip-path="url(#p8c13015df4)" style="fill: #ff7f0e; stroke: #ffffff; stroke-linejoin: miter"/>
   </g>
   <g id="patch_98">
    <path d="M 311.689428 166.32 
L 314.869821 166.32 
L 314.869821 166.32 
L 311.689428 166.32 
z
" clip-path="url(#p8c13015df4)" style="fill: #ff7f0e; stroke: #ffffff; stroke-linejoin: miter"/>
   </g>
   <g id="patch_99">
    <path d="M 319.640411 166.32 
L 322.820804 166.32 
L 322.820804 116.08983 
L 319.640411 116.08983 
z
" clip-path="url(#p8c13015df4)" style="fill: #ff7f0e; stroke: #ffffff; stroke-linejoin: miter"/>
   </g>
   <g id="patch_100">
    <path d="M 327.591394 166.32 
L 330.771787 166.32 
L 330.771787 99.818085 
L 327.591394 99.818085 
z
" clip-path="url(#p8c13015df4)" style="fill: #ff7f0e; stroke: #ffffff; stroke-linejoin: miter"/>
   </g>
   <g id="patch_101">
    <path d="M 335.542377 166.32 
L 338.72277 166.32 
L 338.72277 164.197598 
L 335.542377 164.197598 
z
" clip-path="url(#p8c13015df4)" style="fill: #ff7f0e; stroke: #ffffff; stroke-linejoin: miter"/>
   </g>
   <g id="patch_102">
    <path d="M 343.49336 166.32 
L 346.673754 166.32 
L 346.673754 166.32 
L 343.49336 166.32 
z
" clip-path="url(#p8c13015df4)" style="fill: #ff7f0e; stroke: #ffffff; stroke-linejoin: miter"/>
   </g>
   <g id="patch_103">
    <path d="M 351.444344 166.32 
L 354.624737 166.32 
L 354.624737 166.32 
L 351.444344 166.32 
z
" clip-path="url(#p8c13015df4)" style="fill: #ff7f0e; stroke: #ffffff; stroke-linejoin: miter"/>
   </g>
   <g id="patch_104">
    <path d="M 359.395327 166.32 
L 362.57572 166.32 
L 362.57572 166.32 
L 359.395327 166.32 
z
" clip-path="url(#p8c13015df4)" style="fill: #ff7f0e; stroke: #ffffff; stroke-linejoin: miter"/>
   </g>
   <g id="patch_105">
    <path d="M 367.34631 166.32 
L 370.526703 166.32 
L 370.526703 145.803452 
L 367.34631 145.803452 
z
" clip-path="url(#p8c13015df4)" style="fill: #ff7f0e; stroke: #ffffff; stroke-linejoin: miter"/>
   </g>
   <g id="patch_106">
    <path d="M 375.297293 166.32 
L 378.477686 166.32 
L 378.477686 166.32 
L 375.297293 166.32 
z
" clip-path="url(#p8c13015df4)" style="fill: #ff7f0e; stroke: #ffffff; stroke-linejoin: miter"/>
   </g>
   <g id="patch_107">
    <path d="M 383.248276 166.32 
L 386.42867 166.32 
L 386.42867 138.021313 
L 383.248276 138.021313 
z
" clip-path="url(#p8c13015df4)" style="fill: #ff7f0e; stroke: #ffffff; stroke-linejoin: miter"/>
   </g>
   <g id="patch_108">
    <path d="M 391.199259 166.32 
L 394.379653 166.32 
L 394.379653 147.218386 
L 391.199259 147.218386 
z
" clip-path="url(#p8c13015df4)" style="fill: #ff7f0e; stroke: #ffffff; stroke-linejoin: miter"/>
   </g>
   <g id="patch_109">
    <path d="M 399.150243 166.32 
L 402.330636 166.32 
L 402.330636 164.197598 
L 399.150243 164.197598 
z
" clip-path="url(#p8c13015df4)" style="fill: #ff7f0e; stroke: #ffffff; stroke-linejoin: miter"/>
   </g>
   <g id="patch_110">
    <path d="M 407.101226 166.32 
L 410.281619 166.32 
L 410.281619 158.537861 
L 407.101226 158.537861 
z
" clip-path="url(#p8c13015df4)" style="fill: #ff7f0e; stroke: #ffffff; stroke-linejoin: miter"/>
   </g>
   <g id="patch_111">
    <path d="M 415.052209 166.32 
L 418.232602 166.32 
L 418.232602 164.197598 
L 415.052209 164.197598 
z
" clip-path="url(#p8c13015df4)" style="fill: #ff7f0e; stroke: #ffffff; stroke-linejoin: miter"/>
   </g>
   <g id="patch_112">
    <path d="M 423.003192 166.32 
L 426.183586 166.32 
L 426.183586 159.952795 
L 423.003192 159.952795 
z
" clip-path="url(#p8c13015df4)" style="fill: #ff7f0e; stroke: #ffffff; stroke-linejoin: miter"/>
   </g>
   <g id="patch_113">
    <path d="M 430.954175 166.32 
L 434.134569 166.32 
L 434.134569 164.197598 
L 430.954175 164.197598 
z
" clip-path="url(#p8c13015df4)" style="fill: #ff7f0e; stroke: #ffffff; stroke-linejoin: miter"/>
   </g>
   <g id="patch_114">
    <path d="M 438.905159 166.32 
L 442.085552 166.32 
L 442.085552 164.197598 
L 438.905159 164.197598 
z
" clip-path="url(#p8c13015df4)" style="fill: #ff7f0e; stroke: #ffffff; stroke-linejoin: miter"/>
   </g>
   <g id="patch_115">
    <path d="M 446.856142 166.32 
L 450.036535 166.32 
L 450.036535 108.307691 
L 446.856142 108.307691 
z
" clip-path="url(#p8c13015df4)" style="fill: #ff7f0e; stroke: #ffffff; stroke-linejoin: miter"/>
   </g>
   <g id="patch_116">
    <path d="M 454.807125 166.32 
L 457.987518 166.32 
L 457.987518 13.507088 
L 454.807125 13.507088 
z
" clip-path="url(#p8c13015df4)" style="fill: #ff7f0e; stroke: #ffffff; stroke-linejoin: miter"/>
   </g>
   <g id="patch_117">
    <path d="M 462.758108 166.32 
L 465.938501 166.32 
L 465.938501 125.99437 
L 462.758108 125.99437 
z
" clip-path="url(#p8c13015df4)" style="fill: #ff7f0e; stroke: #ffffff; stroke-linejoin: miter"/>
   </g>
   <g id="patch_118">
    <path d="M 470.709091 166.32 
L 473.889485 166.32 
L 473.889485 166.32 
L 470.709091 166.32 
z
" clip-path="url(#p8c13015df4)" style="fill: #ff7f0e; stroke: #ffffff; stroke-linejoin: miter"/>
   </g>
   <g id="patch_119">
    <path d="M 478.660075 166.32 
L 481.840468 166.32 
L 481.840468 166.32 
L 478.660075 166.32 
z
" clip-path="url(#p8c13015df4)" style="fill: #ff7f0e; stroke: #ffffff; stroke-linejoin: miter"/>
   </g>
   <g id="patch_120">
    <path d="M 486.611058 166.32 
L 489.791451 166.32 
L 489.791451 164.197598 
L 486.611058 164.197598 
z
" clip-path="url(#p8c13015df4)" style="fill: #ff7f0e; stroke: #ffffff; stroke-linejoin: miter"/>
   </g>
   <g id="patch_121">
    <path d="M 494.562041 166.32 
L 497.742434 166.32 
L 497.742434 164.197598 
L 494.562041 164.197598 
z
" clip-path="url(#p8c13015df4)" style="fill: #ff7f0e; stroke: #ffffff; stroke-linejoin: miter"/>
   </g>
   <g id="patch_122">
    <path d="M 502.513024 166.32 
L 505.693417 166.32 
L 505.693417 166.32 
L 502.513024 166.32 
z
" clip-path="url(#p8c13015df4)" style="fill: #ff7f0e; stroke: #ffffff; stroke-linejoin: miter"/>
   </g>
   <g id="patch_123">
    <path d="M 510.464007 166.32 
L 513.644401 166.32 
L 513.644401 166.32 
L 510.464007 166.32 
z
" clip-path="url(#p8c13015df4)" style="fill: #ff7f0e; stroke: #ffffff; stroke-linejoin: miter"/>
   </g>
   <g id="patch_124">
    <path d="M 518.41499 166.32 
L 521.595384 166.32 
L 521.595384 127.409305 
L 518.41499 127.409305 
z
" clip-path="url(#p8c13015df4)" style="fill: #ff7f0e; stroke: #ffffff; stroke-linejoin: miter"/>
   </g>
   <g id="patch_125">
    <path d="M 526.365974 166.32 
L 529.546367 166.32 
L 529.546367 147.218386 
L 526.365974 147.218386 
z
" clip-path="url(#p8c13015df4)" style="fill: #ff7f0e; stroke: #ffffff; stroke-linejoin: miter"/>
   </g>
   <g id="patch_126">
    <path d="M 534.316957 166.32 
L 537.49735 166.32 
L 537.49735 162.075197 
L 534.316957 162.075197 
z
" clip-path="url(#p8c13015df4)" style="fill: #ff7f0e; stroke: #ffffff; stroke-linejoin: miter"/>
   </g>
   <g id="patch_127">
    <path d="M 542.26794 166.32 
L 545.448333 166.32 
L 545.448333 156.415459 
L 542.26794 156.415459 
z
" clip-path="url(#p8c13015df4)" style="fill: #ff7f0e; stroke: #ffffff; stroke-linejoin: miter"/>
   </g>
   <g id="patch_128">
    <path d="M 550.218923 166.32 
L 553.399316 166.32 
L 553.399316 158.537861 
L 550.218923 158.537861 
z
" clip-path="url(#p8c13015df4)" style="fill: #ff7f0e; stroke: #ffffff; stroke-linejoin: miter"/>
   </g>
   <g id="patch_129">
    <path d="M 558.169906 166.32 
L 561.3503 166.32 
L 561.3503 130.946641 
L 558.169906 130.946641 
z
" clip-path="url(#p8c13015df4)" style="fill: #ff7f0e; stroke: #ffffff; stroke-linejoin: miter"/>
   </g>
   <g id="patch_130">
    <path d="M 566.12089 166.32 
L 569.301283 166.32 
L 569.301283 166.32 
L 566.12089 166.32 
z
" clip-path="url(#p8c13015df4)" style="fill: #ff7f0e; stroke: #ffffff; stroke-linejoin: miter"/>
   </g>
   <g id="matplotlib.axis_1">
    <g id="xtick_1">
     <g id="line2d_1">
      <defs>
       <path id="m69c0bec1f7" d="M 0 0 
L 0 3.5 
" style="stroke: #000000; stroke-width: 0.8"/>
      </defs>
      <g>
       <use xlink:href="#m69c0bec1f7" x="68.389342" y="166.32" style="stroke: #000000; stroke-width: 0.8"/>
      </g>
     </g>
     <g id="text_1">
      <!-- 0 -->
      <g transform="translate(65.608873 180.477813) scale(0.1 -0.1)">
       <defs>
        <path id="ArialMT-30" d="M 266 2259 
Q 266 3072 433 3567 
Q 600 4063 929 4331 
Q 1259 4600 1759 4600 
Q 2128 4600 2406 4451 
Q 2684 4303 2865 4023 
Q 3047 3744 3150 3342 
Q 3253 2941 3253 2259 
Q 3253 1453 3087 958 
Q 2922 463 2592 192 
Q 2263 -78 1759 -78 
Q 1097 -78 719 397 
Q 266 969 266 2259 
z
M 844 2259 
Q 844 1131 1108 757 
Q 1372 384 1759 384 
Q 2147 384 2411 759 
Q 2675 1134 2675 2259 
Q 2675 3391 2411 3762 
Q 2147 4134 1753 4134 
Q 1366 4134 1134 3806 
Q 844 3388 844 2259 
z
" transform="scale(0.015625)"/>
       </defs>
       <use xlink:href="#ArialMT-30"/>
      </g>
     </g>
    </g>
    <g id="xtick_2">
     <g id="line2d_2">
      <g>
       <use xlink:href="#m69c0bec1f7" x="147.899174" y="166.32" style="stroke: #000000; stroke-width: 0.8"/>
      </g>
     </g>
     <g id="text_2">
      <!-- 10 -->
      <g transform="translate(142.338236 180.477813) scale(0.1 -0.1)">
       <defs>
        <path id="ArialMT-31" d="M 2384 0 
L 1822 0 
L 1822 3584 
Q 1619 3391 1289 3197 
Q 959 3003 697 2906 
L 697 3450 
Q 1169 3672 1522 3987 
Q 1875 4303 2022 4600 
L 2384 4600 
L 2384 0 
z
" transform="scale(0.015625)"/>
       </defs>
       <use xlink:href="#ArialMT-31"/>
       <use xlink:href="#ArialMT-30" x="55.615234"/>
      </g>
     </g>
    </g>
    <g id="xtick_3">
     <g id="line2d_3">
      <g>
       <use xlink:href="#m69c0bec1f7" x="227.409006" y="166.32" style="stroke: #000000; stroke-width: 0.8"/>
      </g>
     </g>
     <g id="text_3">
      <!-- 20 -->
      <g transform="translate(221.848068 180.477813) scale(0.1 -0.1)">
       <defs>
        <path id="ArialMT-32" d="M 3222 541 
L 3222 0 
L 194 0 
Q 188 203 259 391 
Q 375 700 629 1000 
Q 884 1300 1366 1694 
Q 2113 2306 2375 2664 
Q 2638 3022 2638 3341 
Q 2638 3675 2398 3904 
Q 2159 4134 1775 4134 
Q 1369 4134 1125 3890 
Q 881 3647 878 3216 
L 300 3275 
Q 359 3922 746 4261 
Q 1134 4600 1788 4600 
Q 2447 4600 2831 4234 
Q 3216 3869 3216 3328 
Q 3216 3053 3103 2787 
Q 2991 2522 2730 2228 
Q 2469 1934 1863 1422 
Q 1356 997 1212 845 
Q 1069 694 975 541 
L 3222 541 
z
" transform="scale(0.015625)"/>
       </defs>
       <use xlink:href="#ArialMT-32"/>
       <use xlink:href="#ArialMT-30" x="55.615234"/>
      </g>
     </g>
    </g>
    <g id="xtick_4">
     <g id="line2d_4">
      <g>
       <use xlink:href="#m69c0bec1f7" x="306.918838" y="166.32" style="stroke: #000000; stroke-width: 0.8"/>
      </g>
     </g>
     <g id="text_4">
      <!-- 30 -->
      <g transform="translate(301.3579 180.477813) scale(0.1 -0.1)">
       <defs>
        <path id="ArialMT-33" d="M 269 1209 
L 831 1284 
Q 928 806 1161 595 
Q 1394 384 1728 384 
Q 2125 384 2398 659 
Q 2672 934 2672 1341 
Q 2672 1728 2419 1979 
Q 2166 2231 1775 2231 
Q 1616 2231 1378 2169 
L 1441 2663 
Q 1497 2656 1531 2656 
Q 1891 2656 2178 2843 
Q 2466 3031 2466 3422 
Q 2466 3731 2256 3934 
Q 2047 4138 1716 4138 
Q 1388 4138 1169 3931 
Q 950 3725 888 3313 
L 325 3413 
Q 428 3978 793 4289 
Q 1159 4600 1703 4600 
Q 2078 4600 2393 4439 
Q 2709 4278 2876 4000 
Q 3044 3722 3044 3409 
Q 3044 3113 2884 2869 
Q 2725 2625 2413 2481 
Q 2819 2388 3044 2092 
Q 3269 1797 3269 1353 
Q 3269 753 2831 336 
Q 2394 -81 1725 -81 
Q 1122 -81 723 278 
Q 325 638 269 1209 
z
" transform="scale(0.015625)"/>
       </defs>
       <use xlink:href="#ArialMT-33"/>
       <use xlink:href="#ArialMT-30" x="55.615234"/>
      </g>
     </g>
    </g>
    <g id="xtick_5">
     <g id="line2d_5">
      <g>
       <use xlink:href="#m69c0bec1f7" x="386.42867" y="166.32" style="stroke: #000000; stroke-width: 0.8"/>
      </g>
     </g>
     <g id="text_5">
      <!-- 40 -->
      <g transform="translate(380.867732 180.477813) scale(0.1 -0.1)">
       <defs>
        <path id="ArialMT-34" d="M 2069 0 
L 2069 1097 
L 81 1097 
L 81 1613 
L 2172 4581 
L 2631 4581 
L 2631 1613 
L 3250 1613 
L 3250 1097 
L 2631 1097 
L 2631 0 
L 2069 0 
z
M 2069 1613 
L 2069 3678 
L 634 1613 
L 2069 1613 
z
" transform="scale(0.015625)"/>
       </defs>
       <use xlink:href="#ArialMT-34"/>
       <use xlink:href="#ArialMT-30" x="55.615234"/>
      </g>
     </g>
    </g>
    <g id="xtick_6">
     <g id="line2d_6">
      <g>
       <use xlink:href="#m69c0bec1f7" x="465.938501" y="166.32" style="stroke: #000000; stroke-width: 0.8"/>
      </g>
     </g>
     <g id="text_6">
      <!-- 50 -->
      <g transform="translate(460.377564 180.477813) scale(0.1 -0.1)">
       <defs>
        <path id="ArialMT-35" d="M 266 1200 
L 856 1250 
Q 922 819 1161 601 
Q 1400 384 1738 384 
Q 2144 384 2425 690 
Q 2706 997 2706 1503 
Q 2706 1984 2436 2262 
Q 2166 2541 1728 2541 
Q 1456 2541 1237 2417 
Q 1019 2294 894 2097 
L 366 2166 
L 809 4519 
L 3088 4519 
L 3088 3981 
L 1259 3981 
L 1013 2750 
Q 1425 3038 1878 3038 
Q 2478 3038 2890 2622 
Q 3303 2206 3303 1553 
Q 3303 931 2941 478 
Q 2500 -78 1738 -78 
Q 1113 -78 717 272 
Q 322 622 266 1200 
z
" transform="scale(0.015625)"/>
       </defs>
       <use xlink:href="#ArialMT-35"/>
       <use xlink:href="#ArialMT-30" x="55.615234"/>
      </g>
     </g>
    </g>
    <g id="xtick_7">
     <g id="line2d_7">
      <g>
       <use xlink:href="#m69c0bec1f7" x="545.448333" y="166.32" style="stroke: #000000; stroke-width: 0.8"/>
      </g>
     </g>
     <g id="text_7">
      <!-- 60 -->
      <g transform="translate(539.887396 180.477813) scale(0.1 -0.1)">
       <defs>
        <path id="ArialMT-36" d="M 3184 3459 
L 2625 3416 
Q 2550 3747 2413 3897 
Q 2184 4138 1850 4138 
Q 1581 4138 1378 3988 
Q 1113 3794 959 3422 
Q 806 3050 800 2363 
Q 1003 2672 1297 2822 
Q 1591 2972 1913 2972 
Q 2475 2972 2870 2558 
Q 3266 2144 3266 1488 
Q 3266 1056 3080 686 
Q 2894 316 2569 119 
Q 2244 -78 1831 -78 
Q 1128 -78 684 439 
Q 241 956 241 2144 
Q 241 3472 731 4075 
Q 1159 4600 1884 4600 
Q 2425 4600 2770 4297 
Q 3116 3994 3184 3459 
z
M 888 1484 
Q 888 1194 1011 928 
Q 1134 663 1356 523 
Q 1578 384 1822 384 
Q 2178 384 2434 671 
Q 2691 959 2691 1453 
Q 2691 1928 2437 2201 
Q 2184 2475 1800 2475 
Q 1419 2475 1153 2201 
Q 888 1928 888 1484 
z
" transform="scale(0.015625)"/>
       </defs>
       <use xlink:href="#ArialMT-36"/>
       <use xlink:href="#ArialMT-30" x="55.615234"/>
      </g>
     </g>
    </g>
    <g id="text_8">
     <!-- MEA index -->
     <g transform="translate(294.94375 193.623125) scale(0.1 -0.1)">
      <defs>
       <path id="ArialMT-4d" d="M 475 0 
L 475 4581 
L 1388 4581 
L 2472 1338 
Q 2622 884 2691 659 
Q 2769 909 2934 1394 
L 4031 4581 
L 4847 4581 
L 4847 0 
L 4263 0 
L 4263 3834 
L 2931 0 
L 2384 0 
L 1059 3900 
L 1059 0 
L 475 0 
z
" transform="scale(0.015625)"/>
       <path id="ArialMT-45" d="M 506 0 
L 506 4581 
L 3819 4581 
L 3819 4041 
L 1113 4041 
L 1113 2638 
L 3647 2638 
L 3647 2100 
L 1113 2100 
L 1113 541 
L 3925 541 
L 3925 0 
L 506 0 
z
" transform="scale(0.015625)"/>
       <path id="ArialMT-41" d="M -9 0 
L 1750 4581 
L 2403 4581 
L 4278 0 
L 3588 0 
L 3053 1388 
L 1138 1388 
L 634 0 
L -9 0 
z
M 1313 1881 
L 2866 1881 
L 2388 3150 
Q 2169 3728 2063 4100 
Q 1975 3659 1816 3225 
L 1313 1881 
z
" transform="scale(0.015625)"/>
       <path id="ArialMT-20" transform="scale(0.015625)"/>
       <path id="ArialMT-69" d="M 425 3934 
L 425 4581 
L 988 4581 
L 988 3934 
L 425 3934 
z
M 425 0 
L 425 3319 
L 988 3319 
L 988 0 
L 425 0 
z
" transform="scale(0.015625)"/>
       <path id="ArialMT-6e" d="M 422 0 
L 422 3319 
L 928 3319 
L 928 2847 
Q 1294 3394 1984 3394 
Q 2284 3394 2536 3286 
Q 2788 3178 2913 3003 
Q 3038 2828 3088 2588 
Q 3119 2431 3119 2041 
L 3119 0 
L 2556 0 
L 2556 2019 
Q 2556 2363 2490 2533 
Q 2425 2703 2258 2804 
Q 2091 2906 1866 2906 
Q 1506 2906 1245 2678 
Q 984 2450 984 1813 
L 984 0 
L 422 0 
z
" transform="scale(0.015625)"/>
       <path id="ArialMT-64" d="M 2575 0 
L 2575 419 
Q 2259 -75 1647 -75 
Q 1250 -75 917 144 
Q 584 363 401 755 
Q 219 1147 219 1656 
Q 219 2153 384 2558 
Q 550 2963 881 3178 
Q 1213 3394 1622 3394 
Q 1922 3394 2156 3267 
Q 2391 3141 2538 2938 
L 2538 4581 
L 3097 4581 
L 3097 0 
L 2575 0 
z
M 797 1656 
Q 797 1019 1065 703 
Q 1334 388 1700 388 
Q 2069 388 2326 689 
Q 2584 991 2584 1609 
Q 2584 2291 2321 2609 
Q 2059 2928 1675 2928 
Q 1300 2928 1048 2622 
Q 797 2316 797 1656 
z
" transform="scale(0.015625)"/>
       <path id="ArialMT-65" d="M 2694 1069 
L 3275 997 
Q 3138 488 2766 206 
Q 2394 -75 1816 -75 
Q 1088 -75 661 373 
Q 234 822 234 1631 
Q 234 2469 665 2931 
Q 1097 3394 1784 3394 
Q 2450 3394 2872 2941 
Q 3294 2488 3294 1666 
Q 3294 1616 3291 1516 
L 816 1516 
Q 847 969 1125 678 
Q 1403 388 1819 388 
Q 2128 388 2347 550 
Q 2566 713 2694 1069 
z
M 847 1978 
L 2700 1978 
Q 2663 2397 2488 2606 
Q 2219 2931 1791 2931 
Q 1403 2931 1139 2672 
Q 875 2413 847 1978 
z
" transform="scale(0.015625)"/>
       <path id="ArialMT-78" d="M 47 0 
L 1259 1725 
L 138 3319 
L 841 3319 
L 1350 2541 
Q 1494 2319 1581 2169 
Q 1719 2375 1834 2534 
L 2394 3319 
L 3066 3319 
L 1919 1756 
L 3153 0 
L 2463 0 
L 1781 1031 
L 1600 1309 
L 728 0 
L 47 0 
z
" transform="scale(0.015625)"/>
      </defs>
      <use xlink:href="#ArialMT-4d"/>
      <use xlink:href="#ArialMT-45" x="83.300781"/>
      <use xlink:href="#ArialMT-41" x="150"/>
      <use xlink:href="#ArialMT-20" x="211.199219"/>
      <use xlink:href="#ArialMT-69" x="238.982422"/>
      <use xlink:href="#ArialMT-6e" x="261.199219"/>
      <use xlink:href="#ArialMT-64" x="316.814453"/>
      <use xlink:href="#ArialMT-65" x="372.429688"/>
      <use xlink:href="#ArialMT-78" x="428.044922"/>
     </g>
    </g>
   </g>
   <g id="matplotlib.axis_2">
    <g id="ytick_1">
     <g id="line2d_8">
      <defs>
       <path id="m233d1cea12" d="M 0 0 
L -3.5 0 
" style="stroke: #000000; stroke-width: 0.8"/>
      </defs>
      <g>
       <use xlink:href="#m233d1cea12" x="39.845313" y="166.32" style="stroke: #000000; stroke-width: 0.8"/>
      </g>
     </g>
     <g id="text_9">
      <!-- 0.00 -->
      <g transform="translate(13.384375 169.898906) scale(0.1 -0.1)">
       <defs>
        <path id="ArialMT-2e" d="M 581 0 
L 581 641 
L 1222 641 
L 1222 0 
L 581 0 
z
" transform="scale(0.015625)"/>
       </defs>
       <use xlink:href="#ArialMT-30"/>
       <use xlink:href="#ArialMT-2e" x="55.615234"/>
       <use xlink:href="#ArialMT-30" x="83.398438"/>
       <use xlink:href="#ArialMT-30" x="139.013672"/>
      </g>
     </g>
    </g>
    <g id="ytick_2">
     <g id="line2d_9">
      <g>
       <use xlink:href="#m233d1cea12" x="39.845313" y="145.421419" style="stroke: #000000; stroke-width: 0.8"/>
      </g>
     </g>
     <g id="text_10">
      <!-- 0.02 -->
      <g transform="translate(13.384375 149.000326) scale(0.1 -0.1)">
       <use xlink:href="#ArialMT-30"/>
       <use xlink:href="#ArialMT-2e" x="55.615234"/>
       <use xlink:href="#ArialMT-30" x="83.398438"/>
       <use xlink:href="#ArialMT-32" x="139.013672"/>
      </g>
     </g>
    </g>
    <g id="ytick_3">
     <g id="line2d_10">
      <g>
       <use xlink:href="#m233d1cea12" x="39.845313" y="124.522839" style="stroke: #000000; stroke-width: 0.8"/>
      </g>
     </g>
     <g id="text_11">
      <!-- 0.04 -->
      <g transform="translate(13.384375 128.101745) scale(0.1 -0.1)">
       <use xlink:href="#ArialMT-30"/>
       <use xlink:href="#ArialMT-2e" x="55.615234"/>
       <use xlink:href="#ArialMT-30" x="83.398438"/>
       <use xlink:href="#ArialMT-34" x="139.013672"/>
      </g>
     </g>
    </g>
    <g id="ytick_4">
     <g id="line2d_11">
      <g>
       <use xlink:href="#m233d1cea12" x="39.845313" y="103.624258" style="stroke: #000000; stroke-width: 0.8"/>
      </g>
     </g>
     <g id="text_12">
      <!-- 0.06 -->
      <g transform="translate(13.384375 107.203164) scale(0.1 -0.1)">
       <use xlink:href="#ArialMT-30"/>
       <use xlink:href="#ArialMT-2e" x="55.615234"/>
       <use xlink:href="#ArialMT-30" x="83.398438"/>
       <use xlink:href="#ArialMT-36" x="139.013672"/>
      </g>
     </g>
    </g>
    <g id="ytick_5">
     <g id="line2d_12">
      <g>
       <use xlink:href="#m233d1cea12" x="39.845313" y="82.725677" style="stroke: #000000; stroke-width: 0.8"/>
      </g>
     </g>
     <g id="text_13">
      <!-- 0.08 -->
      <g transform="translate(13.384375 86.304584) scale(0.1 -0.1)">
       <defs>
        <path id="ArialMT-38" d="M 1131 2484 
Q 781 2613 612 2850 
Q 444 3088 444 3419 
Q 444 3919 803 4259 
Q 1163 4600 1759 4600 
Q 2359 4600 2725 4251 
Q 3091 3903 3091 3403 
Q 3091 3084 2923 2848 
Q 2756 2613 2416 2484 
Q 2838 2347 3058 2040 
Q 3278 1734 3278 1309 
Q 3278 722 2862 322 
Q 2447 -78 1769 -78 
Q 1091 -78 675 323 
Q 259 725 259 1325 
Q 259 1772 486 2073 
Q 713 2375 1131 2484 
z
M 1019 3438 
Q 1019 3113 1228 2906 
Q 1438 2700 1772 2700 
Q 2097 2700 2305 2904 
Q 2513 3109 2513 3406 
Q 2513 3716 2298 3927 
Q 2084 4138 1766 4138 
Q 1444 4138 1231 3931 
Q 1019 3725 1019 3438 
z
M 838 1322 
Q 838 1081 952 856 
Q 1066 631 1291 507 
Q 1516 384 1775 384 
Q 2178 384 2440 643 
Q 2703 903 2703 1303 
Q 2703 1709 2433 1975 
Q 2163 2241 1756 2241 
Q 1359 2241 1098 1978 
Q 838 1716 838 1322 
z
" transform="scale(0.015625)"/>
       </defs>
       <use xlink:href="#ArialMT-30"/>
       <use xlink:href="#ArialMT-2e" x="55.615234"/>
       <use xlink:href="#ArialMT-30" x="83.398438"/>
       <use xlink:href="#ArialMT-38" x="139.013672"/>
      </g>
     </g>
    </g>
    <g id="ytick_6">
     <g id="line2d_13">
      <g>
       <use xlink:href="#m233d1cea12" x="39.845313" y="61.827097" style="stroke: #000000; stroke-width: 0.8"/>
      </g>
     </g>
     <g id="text_14">
      <!-- 0.10 -->
      <g transform="translate(13.384375 65.406003) scale(0.1 -0.1)">
       <use xlink:href="#ArialMT-30"/>
       <use xlink:href="#ArialMT-2e" x="55.615234"/>
       <use xlink:href="#ArialMT-31" x="83.398438"/>
       <use xlink:href="#ArialMT-30" x="139.013672"/>
      </g>
     </g>
    </g>
    <g id="ytick_7">
     <g id="line2d_14">
      <g>
       <use xlink:href="#m233d1cea12" x="39.845313" y="40.928516" style="stroke: #000000; stroke-width: 0.8"/>
      </g>
     </g>
     <g id="text_15">
      <!-- 0.12 -->
      <g transform="translate(13.384375 44.507422) scale(0.1 -0.1)">
       <use xlink:href="#ArialMT-30"/>
       <use xlink:href="#ArialMT-2e" x="55.615234"/>
       <use xlink:href="#ArialMT-31" x="83.398438"/>
       <use xlink:href="#ArialMT-32" x="139.013672"/>
      </g>
     </g>
    </g>
    <g id="ytick_8">
     <g id="line2d_15">
      <g>
       <use xlink:href="#m233d1cea12" x="39.845313" y="20.029935" style="stroke: #000000; stroke-width: 0.8"/>
      </g>
     </g>
     <g id="text_16">
      <!-- 0.14 -->
      <g transform="translate(13.384375 23.608842) scale(0.1 -0.1)">
       <use xlink:href="#ArialMT-30"/>
       <use xlink:href="#ArialMT-2e" x="55.615234"/>
       <use xlink:href="#ArialMT-31" x="83.398438"/>
       <use xlink:href="#ArialMT-34" x="139.013672"/>
      </g>
     </g>
    </g>
    <g id="text_17">
     <!-- Normalized firing rate -->
     <g transform="translate(7.279688 130.674063) rotate(-90) scale(0.1 -0.1)">
      <defs>
       <path id="ArialMT-4e" d="M 488 0 
L 488 4581 
L 1109 4581 
L 3516 984 
L 3516 4581 
L 4097 4581 
L 4097 0 
L 3475 0 
L 1069 3600 
L 1069 0 
L 488 0 
z
" transform="scale(0.015625)"/>
       <path id="ArialMT-6f" d="M 213 1659 
Q 213 2581 725 3025 
Q 1153 3394 1769 3394 
Q 2453 3394 2887 2945 
Q 3322 2497 3322 1706 
Q 3322 1066 3130 698 
Q 2938 331 2570 128 
Q 2203 -75 1769 -75 
Q 1072 -75 642 372 
Q 213 819 213 1659 
z
M 791 1659 
Q 791 1022 1069 705 
Q 1347 388 1769 388 
Q 2188 388 2466 706 
Q 2744 1025 2744 1678 
Q 2744 2294 2464 2611 
Q 2184 2928 1769 2928 
Q 1347 2928 1069 2612 
Q 791 2297 791 1659 
z
" transform="scale(0.015625)"/>
       <path id="ArialMT-72" d="M 416 0 
L 416 3319 
L 922 3319 
L 922 2816 
Q 1116 3169 1280 3281 
Q 1444 3394 1641 3394 
Q 1925 3394 2219 3213 
L 2025 2691 
Q 1819 2813 1613 2813 
Q 1428 2813 1281 2702 
Q 1134 2591 1072 2394 
Q 978 2094 978 1738 
L 978 0 
L 416 0 
z
" transform="scale(0.015625)"/>
       <path id="ArialMT-6d" d="M 422 0 
L 422 3319 
L 925 3319 
L 925 2853 
Q 1081 3097 1340 3245 
Q 1600 3394 1931 3394 
Q 2300 3394 2536 3241 
Q 2772 3088 2869 2813 
Q 3263 3394 3894 3394 
Q 4388 3394 4653 3120 
Q 4919 2847 4919 2278 
L 4919 0 
L 4359 0 
L 4359 2091 
Q 4359 2428 4304 2576 
Q 4250 2725 4106 2815 
Q 3963 2906 3769 2906 
Q 3419 2906 3187 2673 
Q 2956 2441 2956 1928 
L 2956 0 
L 2394 0 
L 2394 2156 
Q 2394 2531 2256 2718 
Q 2119 2906 1806 2906 
Q 1569 2906 1367 2781 
Q 1166 2656 1075 2415 
Q 984 2175 984 1722 
L 984 0 
L 422 0 
z
" transform="scale(0.015625)"/>
       <path id="ArialMT-61" d="M 2588 409 
Q 2275 144 1986 34 
Q 1697 -75 1366 -75 
Q 819 -75 525 192 
Q 231 459 231 875 
Q 231 1119 342 1320 
Q 453 1522 633 1644 
Q 813 1766 1038 1828 
Q 1203 1872 1538 1913 
Q 2219 1994 2541 2106 
Q 2544 2222 2544 2253 
Q 2544 2597 2384 2738 
Q 2169 2928 1744 2928 
Q 1347 2928 1158 2789 
Q 969 2650 878 2297 
L 328 2372 
Q 403 2725 575 2942 
Q 747 3159 1072 3276 
Q 1397 3394 1825 3394 
Q 2250 3394 2515 3294 
Q 2781 3194 2906 3042 
Q 3031 2891 3081 2659 
Q 3109 2516 3109 2141 
L 3109 1391 
Q 3109 606 3145 398 
Q 3181 191 3288 0 
L 2700 0 
Q 2613 175 2588 409 
z
M 2541 1666 
Q 2234 1541 1622 1453 
Q 1275 1403 1131 1340 
Q 988 1278 909 1158 
Q 831 1038 831 891 
Q 831 666 1001 516 
Q 1172 366 1500 366 
Q 1825 366 2078 508 
Q 2331 650 2450 897 
Q 2541 1088 2541 1459 
L 2541 1666 
z
" transform="scale(0.015625)"/>
       <path id="ArialMT-6c" d="M 409 0 
L 409 4581 
L 972 4581 
L 972 0 
L 409 0 
z
" transform="scale(0.015625)"/>
       <path id="ArialMT-7a" d="M 125 0 
L 125 456 
L 2238 2881 
Q 1878 2863 1603 2863 
L 250 2863 
L 250 3319 
L 2963 3319 
L 2963 2947 
L 1166 841 
L 819 456 
Q 1197 484 1528 484 
L 3063 484 
L 3063 0 
L 125 0 
z
" transform="scale(0.015625)"/>
       <path id="ArialMT-66" d="M 556 0 
L 556 2881 
L 59 2881 
L 59 3319 
L 556 3319 
L 556 3672 
Q 556 4006 616 4169 
Q 697 4388 901 4523 
Q 1106 4659 1475 4659 
Q 1713 4659 2000 4603 
L 1916 4113 
Q 1741 4144 1584 4144 
Q 1328 4144 1222 4034 
Q 1116 3925 1116 3625 
L 1116 3319 
L 1763 3319 
L 1763 2881 
L 1116 2881 
L 1116 0 
L 556 0 
z
" transform="scale(0.015625)"/>
       <path id="ArialMT-67" d="M 319 -275 
L 866 -356 
Q 900 -609 1056 -725 
Q 1266 -881 1628 -881 
Q 2019 -881 2231 -725 
Q 2444 -569 2519 -288 
Q 2563 -116 2559 434 
Q 2191 0 1641 0 
Q 956 0 581 494 
Q 206 988 206 1678 
Q 206 2153 378 2554 
Q 550 2956 876 3175 
Q 1203 3394 1644 3394 
Q 2231 3394 2613 2919 
L 2613 3319 
L 3131 3319 
L 3131 450 
Q 3131 -325 2973 -648 
Q 2816 -972 2473 -1159 
Q 2131 -1347 1631 -1347 
Q 1038 -1347 672 -1080 
Q 306 -813 319 -275 
z
M 784 1719 
Q 784 1066 1043 766 
Q 1303 466 1694 466 
Q 2081 466 2343 764 
Q 2606 1063 2606 1700 
Q 2606 2309 2336 2618 
Q 2066 2928 1684 2928 
Q 1309 2928 1046 2623 
Q 784 2319 784 1719 
z
" transform="scale(0.015625)"/>
       <path id="ArialMT-74" d="M 1650 503 
L 1731 6 
Q 1494 -44 1306 -44 
Q 1000 -44 831 53 
Q 663 150 594 308 
Q 525 466 525 972 
L 525 2881 
L 113 2881 
L 113 3319 
L 525 3319 
L 525 4141 
L 1084 4478 
L 1084 3319 
L 1650 3319 
L 1650 2881 
L 1084 2881 
L 1084 941 
Q 1084 700 1114 631 
Q 1144 563 1211 522 
Q 1278 481 1403 481 
Q 1497 481 1650 503 
z
" transform="scale(0.015625)"/>
      </defs>
      <use xlink:href="#ArialMT-4e"/>
      <use xlink:href="#ArialMT-6f" x="72.216797"/>
      <use xlink:href="#ArialMT-72" x="127.832031"/>
      <use xlink:href="#ArialMT-6d" x="161.132812"/>
      <use xlink:href="#ArialMT-61" x="244.433594"/>
      <use xlink:href="#ArialMT-6c" x="300.048828"/>
      <use xlink:href="#ArialMT-69" x="322.265625"/>
      <use xlink:href="#ArialMT-7a" x="344.482422"/>
      <use xlink:href="#ArialMT-65" x="394.482422"/>
      <use xlink:href="#ArialMT-64" x="450.097656"/>
      <use xlink:href="#ArialMT-20" x="505.712891"/>
      <use xlink:href="#ArialMT-66" x="533.496094"/>
      <use xlink:href="#ArialMT-69" x="561.279297"/>
      <use xlink:href="#ArialMT-72" x="583.496094"/>
      <use xlink:href="#ArialMT-69" x="616.796875"/>
      <use xlink:href="#ArialMT-6e" x="639.013672"/>
      <use xlink:href="#ArialMT-67" x="694.628906"/>
      <use xlink:href="#ArialMT-20" x="750.244141"/>
      <use xlink:href="#ArialMT-72" x="778.027344"/>
      <use xlink:href="#ArialMT-61" x="811.328125"/>
      <use xlink:href="#ArialMT-74" x="866.943359"/>
      <use xlink:href="#ArialMT-65" x="894.726562"/>
     </g>
    </g>
   </g>
   <g id="patch_131">
    <path d="M 39.845313 166.32 
L 39.845313 0 
" style="fill: none; stroke: #000000; stroke-width: 0.8; stroke-linejoin: miter; stroke-linecap: square"/>
   </g>
   <g id="patch_132">
    <path d="M 597.845312 166.32 
L 597.845312 0 
" style="fill: none; stroke: #000000; stroke-width: 0.8; stroke-linejoin: miter; stroke-linecap: square"/>
   </g>
   <g id="patch_133">
    <path d="M 39.845312 166.32 
L 597.845312 166.32 
" style="fill: none; stroke: #000000; stroke-width: 0.8; stroke-linejoin: miter; stroke-linecap: square"/>
   </g>
   <g id="patch_134">
    <path d="M 39.845312 0 
L 597.845312 0 
" style="fill: none; stroke: #000000; stroke-width: 0.8; stroke-linejoin: miter; stroke-linecap: square"/>
   </g>
   <g id="legend_1">
    <g id="patch_135">
     <path d="M 46.845313 36.407813 
L 183.326562 36.407813 
Q 185.326562 36.407813 185.326562 34.407813 
L 185.326562 7 
Q 185.326562 5 183.326562 5 
L 46.845313 5 
Q 44.845313 5 44.845313 7 
L 44.845313 34.407813 
Q 44.845313 36.407813 46.845313 36.407813 
z
" style="fill: #ffffff; opacity: 0.8; stroke: #cccccc; stroke-linejoin: miter"/>
    </g>
    <g id="patch_136">
     <path d="M 48.845313 16.157813 
L 68.845313 16.157813 
L 68.845313 9.157813 
L 48.845313 9.157813 
z
" style="fill: #1f77b4; stroke: #ffffff; stroke-linejoin: miter"/>
    </g>
    <g id="text_18">
     <!-- Read-world Experiment -->
     <g transform="translate(76.845313 16.157813) scale(0.1 -0.1)">
      <defs>
       <path id="ArialMT-52" d="M 503 0 
L 503 4581 
L 2534 4581 
Q 3147 4581 3465 4457 
Q 3784 4334 3975 4021 
Q 4166 3709 4166 3331 
Q 4166 2844 3850 2509 
Q 3534 2175 2875 2084 
Q 3116 1969 3241 1856 
Q 3506 1613 3744 1247 
L 4541 0 
L 3778 0 
L 3172 953 
Q 2906 1366 2734 1584 
Q 2563 1803 2427 1890 
Q 2291 1978 2150 2013 
Q 2047 2034 1813 2034 
L 1109 2034 
L 1109 0 
L 503 0 
z
M 1109 2559 
L 2413 2559 
Q 2828 2559 3062 2645 
Q 3297 2731 3419 2920 
Q 3541 3109 3541 3331 
Q 3541 3656 3305 3865 
Q 3069 4075 2559 4075 
L 1109 4075 
L 1109 2559 
z
" transform="scale(0.015625)"/>
       <path id="ArialMT-2d" d="M 203 1375 
L 203 1941 
L 1931 1941 
L 1931 1375 
L 203 1375 
z
" transform="scale(0.015625)"/>
       <path id="ArialMT-77" d="M 1034 0 
L 19 3319 
L 600 3319 
L 1128 1403 
L 1325 691 
Q 1338 744 1497 1375 
L 2025 3319 
L 2603 3319 
L 3100 1394 
L 3266 759 
L 3456 1400 
L 4025 3319 
L 4572 3319 
L 3534 0 
L 2950 0 
L 2422 1988 
L 2294 2553 
L 1622 0 
L 1034 0 
z
" transform="scale(0.015625)"/>
       <path id="ArialMT-70" d="M 422 -1272 
L 422 3319 
L 934 3319 
L 934 2888 
Q 1116 3141 1344 3267 
Q 1572 3394 1897 3394 
Q 2322 3394 2647 3175 
Q 2972 2956 3137 2557 
Q 3303 2159 3303 1684 
Q 3303 1175 3120 767 
Q 2938 359 2589 142 
Q 2241 -75 1856 -75 
Q 1575 -75 1351 44 
Q 1128 163 984 344 
L 984 -1272 
L 422 -1272 
z
M 931 1641 
Q 931 1000 1190 694 
Q 1450 388 1819 388 
Q 2194 388 2461 705 
Q 2728 1022 2728 1688 
Q 2728 2322 2467 2637 
Q 2206 2953 1844 2953 
Q 1484 2953 1207 2617 
Q 931 2281 931 1641 
z
" transform="scale(0.015625)"/>
      </defs>
      <use xlink:href="#ArialMT-52"/>
      <use xlink:href="#ArialMT-65" x="72.216797"/>
      <use xlink:href="#ArialMT-61" x="127.832031"/>
      <use xlink:href="#ArialMT-64" x="183.447266"/>
      <use xlink:href="#ArialMT-2d" x="239.0625"/>
      <use xlink:href="#ArialMT-77" x="272.363281"/>
      <use xlink:href="#ArialMT-6f" x="344.580078"/>
      <use xlink:href="#ArialMT-72" x="400.195312"/>
      <use xlink:href="#ArialMT-6c" x="433.496094"/>
      <use xlink:href="#ArialMT-64" x="455.712891"/>
      <use xlink:href="#ArialMT-20" x="511.328125"/>
      <use xlink:href="#ArialMT-45" x="539.111328"/>
      <use xlink:href="#ArialMT-78" x="605.810547"/>
      <use xlink:href="#ArialMT-70" x="655.810547"/>
      <use xlink:href="#ArialMT-65" x="711.425781"/>
      <use xlink:href="#ArialMT-72" x="767.041016"/>
      <use xlink:href="#ArialMT-69" x="800.341797"/>
      <use xlink:href="#ArialMT-6d" x="822.558594"/>
      <use xlink:href="#ArialMT-65" x="905.859375"/>
      <use xlink:href="#ArialMT-6e" x="961.474609"/>
      <use xlink:href="#ArialMT-74" x="1017.089844"/>
     </g>
    </g>
    <g id="patch_137">
     <path d="M 48.845313 30.303125 
L 68.845313 30.303125 
L 68.845313 23.303125 
L 48.845313 23.303125 
z
" style="fill: #ff7f0e; stroke: #ffffff; stroke-linejoin: miter"/>
    </g>
    <g id="text_19">
     <!-- Digital Twin Model -->
     <g transform="translate(76.845313 30.303125) scale(0.1 -0.1)">
      <defs>
       <path id="ArialMT-44" d="M 494 0 
L 494 4581 
L 2072 4581 
Q 2606 4581 2888 4516 
Q 3281 4425 3559 4188 
Q 3922 3881 4101 3404 
Q 4281 2928 4281 2316 
Q 4281 1794 4159 1391 
Q 4038 988 3847 723 
Q 3656 459 3429 307 
Q 3203 156 2883 78 
Q 2563 0 2147 0 
L 494 0 
z
M 1100 541 
L 2078 541 
Q 2531 541 2789 625 
Q 3047 709 3200 863 
Q 3416 1078 3536 1442 
Q 3656 1806 3656 2325 
Q 3656 3044 3420 3430 
Q 3184 3816 2847 3947 
Q 2603 4041 2063 4041 
L 1100 4041 
L 1100 541 
z
" transform="scale(0.015625)"/>
       <path id="ArialMT-54" d="M 1659 0 
L 1659 4041 
L 150 4041 
L 150 4581 
L 3781 4581 
L 3781 4041 
L 2266 4041 
L 2266 0 
L 1659 0 
z
" transform="scale(0.015625)"/>
      </defs>
      <use xlink:href="#ArialMT-44"/>
      <use xlink:href="#ArialMT-69" x="72.216797"/>
      <use xlink:href="#ArialMT-67" x="94.433594"/>
      <use xlink:href="#ArialMT-69" x="150.048828"/>
      <use xlink:href="#ArialMT-74" x="172.265625"/>
      <use xlink:href="#ArialMT-61" x="200.048828"/>
      <use xlink:href="#ArialMT-6c" x="255.664062"/>
      <use xlink:href="#ArialMT-20" x="277.880859"/>
      <use xlink:href="#ArialMT-54" x="303.914062"/>
      <use xlink:href="#ArialMT-77" x="359.498047"/>
      <use xlink:href="#ArialMT-69" x="431.714844"/>
      <use xlink:href="#ArialMT-6e" x="453.931641"/>
      <use xlink:href="#ArialMT-20" x="509.546875"/>
      <use xlink:href="#ArialMT-4d" x="537.330078"/>
      <use xlink:href="#ArialMT-6f" x="620.630859"/>
      <use xlink:href="#ArialMT-64" x="676.246094"/>
      <use xlink:href="#ArialMT-65" x="731.861328"/>
      <use xlink:href="#ArialMT-6c" x="787.476562"/>
     </g>
    </g>
   </g>
  </g>
 </g>
 <defs>
  <clipPath id="p8c13015df4">
   <rect x="39.845313" y="0" width="558" height="166.32"/>
  </clipPath>
 </defs>
</svg>
